<?xml version="1.0" encoding="UTF-8"?>
<svg version="1.1" xmlns="http://www.w3.org/2000/svg" width="266" height="214">
<path d="M0 0 C9.80336436 7.35946617 18.07411105 17.24816137 22 29 C22 29.66 22 30.32 22 31 C23.11375 30.6596875 23.11375 30.6596875 24.25 30.3125 C27 30 27 30 29.3125 31.4375 C29.869375 31.953125 30.42625 32.46875 31 33 C30.6875 36.375 30.6875 36.375 30 40 C29.01 40.66 28.02 41.32 27 42 C27.56589844 42.13277344 28.13179687 42.26554687 28.71484375 42.40234375 C29.44832031 42.57894531 30.18179688 42.75554687 30.9375 42.9375 C31.66839844 43.11152344 32.39929688 43.28554687 33.15234375 43.46484375 C35 44 35 44 36 45 C36.1875 47.4375 36.1875 47.4375 36 50 C34 52 34 52 31.625 52.3125 C28.57285984 51.94914998 27.26737944 51.01544839 25 49 C24.49803706 52.28926495 24.49803706 52.28926495 25 56 C27.50476186 58.30607208 27.50476186 58.30607208 29.40234375 59.6171875 C34.00765011 63.60319838 35.78098011 70.26225137 36.25 76.125 C35.49792558 87.78215356 29.65248281 98.39304491 21.12109375 106.31640625 C5.74771153 118.51885144 -11.52445883 123.53975089 -31 122 C-38.673089 120.61567982 -44.2518823 118.19381501 -50.1640625 113.1796875 C-52.37610571 111.75833208 -53.59054109 111.73018817 -56.1875 111.875 C-60 112 -60 112 -63 110.4375 C-65 108 -65 108 -65.4375 104.4375 C-65 101 -65 101 -63 98 C-63.71542969 97.75894531 -64.43085937 97.51789063 -65.16796875 97.26953125 C-75.21486113 92.76575191 -82.42408431 82.65792344 -87 73 C-88.17533796 69.5552154 -89.11201742 66.04649505 -90.07006836 62.53637695 C-91.62370416 57.26738538 -93.62019264 54.74420305 -97.98828125 51.57421875 C-101.47756877 48.84376658 -104.42813588 45.15736025 -106 41 C-104.74353042 36.43773879 -102.90406763 34.62927004 -99 32 C-97.7315625 31.40832031 -97.7315625 31.40832031 -96.4375 30.8046875 C-89.5338685 27.52171056 -86.61783593 24.65387866 -83.40625 17.7265625 C-81.97338205 14.94839075 -80.45209676 13.19307177 -78.25 11 C-74.5651637 7.10460162 -73.94166314 3.46219618 -73.38671875 -1.77734375 C-73.19529297 -2.87755859 -73.19529297 -2.87755859 -73 -4 C-70.0598437 -5.47007815 -67.27445466 -5.23636381 -64 -5.375 C-58.43966269 -5.66771936 -53.41453624 -6.43349606 -48.1484375 -8.28125 C-31.90350251 -13.71591916 -13.88275693 -9.07854588 0 0 Z M-92 39 C-92 40.32 -92 41.64 -92 43 C-91.67 41.68 -91.34 40.36 -91 39 C-91.33 39 -91.66 39 -92 39 Z M22 65 C21.25556641 66.57587891 21.25556641 66.57587891 20.49609375 68.18359375 C15.58098566 78.40969844 10.3389036 87.1664845 2 95 C3.38234878 96.03902033 4.78155791 97.05563446 6.1875 98.0625 C6.96480469 98.63097656 7.74210937 99.19945312 8.54296875 99.78515625 C10.93128385 101.20892313 10.93128385 101.20892313 13.59375 100.90234375 C16.36918099 99.86155713 17.48376351 98.80600363 19.3125 96.5 C20.08013672 95.55640625 20.08013672 95.55640625 20.86328125 94.59375 C22.09677863 93.1905758 22.09677863 93.1905758 22 92 C19.03 91.67 16.06 91.34 13 91 C13.33 90.01 13.66 89.02 14 88 C15.2375 88.04125 16.475 88.0825 17.75 88.125 C22.19084243 88.11243981 22.19084243 88.11243981 26 86 C28.26305712 82.03965005 28.38724134 78.49199951 28 74 C26.80154025 69.93672892 25.63134067 67.42089378 22 65 Z M8 65 C7.01 65.495 7.01 65.495 6 66 C6.33 66.99 6.66 67.98 7 69 C7.99 69 8.98 69 10 69 C10.33 68.01 10.66 67.02 11 66 C10.01 65.67 9.02 65.34 8 65 Z M-14.6875 102.5 C-15.49574219 102.7784375 -16.30398437 103.056875 -17.13671875 103.34375 C-17.75160156 103.5603125 -18.36648437 103.776875 -19 104 C-14.56812899 108.81226484 -14.56812899 108.81226484 -9 112 C-4.73697637 111.62930229 -1.07503356 111.07503356 2 108 C0.56967163 106.82455195 -0.86953242 105.65989738 -2.3125 104.5 C-3.11300781 103.8503125 -3.91351563 103.200625 -4.73828125 102.53125 C-8.34772473 100.08755079 -10.82793312 101.15754195 -14.6875 102.5 Z M-46 105 C-42.98313877 110.17176211 -39.02873014 111.46493503 -33.65625 113.3984375 C-30.94855269 114.0116513 -29.57428966 113.93500143 -27 113 C-29.87293902 109.12557871 -32.30294565 106.37195712 -37.13671875 105.3125 C-40.10429155 105.08773709 -43.02470868 104.96580125 -46 105 Z " fill="#090502" transform="translate(168,76)"/>
<path d="M0 0 C9.28876681 6.97315355 19.08076406 17.39201456 22 29 C21.765625 31.14453125 21.765625 31.14453125 21 33 C20.071875 33.5775 19.14375 34.155 18.1875 34.75 C12.68480627 38.6342544 11.28997613 43.55011934 10 50 C5.05 50 0.1 50 -5 50 C-5.3403125 47.89625 -5.3403125 47.89625 -5.6875 45.75 C-7.68979139 35.85055933 -11.8871015 27.00498613 -18 19 C-18.56203125 18.24976562 -19.1240625 17.49953125 -19.703125 16.7265625 C-29.4476173 4.73019172 -42.70603426 0.23524911 -57 -4 C-43.7288009 -18.30119537 -13.64552246 -8.92340782 0 0 Z " fill="#F9C507" transform="translate(168,76)"/>
<path d="M0 0 C2.74819283 2.25290449 5.41429351 4.56247154 8 7 C5.92310631 11.97416038 2.78663055 13.02185166 -2 15 C-2.67546875 15.30292969 -3.3509375 15.60585937 -4.046875 15.91796875 C-15.51939978 20.25067758 -30.72017152 19.45836895 -42.09375 15.33984375 C-48.67339144 12.30648755 -55.26694323 8.58868945 -60 3 C-60.25 -0.75 -60.25 -0.75 -60 -4 C-40.6676998 -14.57424353 -17.69805933 -13.78104135 0 0 Z " fill="#F9C504" transform="translate(137,118)"/>
<path d="M0 0 C1.05058594 0.54269531 2.10117188 1.08539063 3.18359375 1.64453125 C4.60139503 2.36751601 6.01937337 3.09015361 7.4375 3.8125 C8.12521484 4.16892578 8.81292969 4.52535156 9.52148438 4.89257812 C18.20730173 9.29608553 25.80350334 11.43690214 35.5625 11.6875 C36.93245117 11.73874023 36.93245117 11.73874023 38.33007812 11.79101562 C40.55326229 11.87249358 42.77610197 11.94195738 45 12 C44.59950439 12.50716553 44.19900879 13.01433105 43.78637695 13.53686523 C38.67264132 20.15441277 34.1695047 27.52179138 33.5 36.0625 C33.335 37.031875 33.17 38.00125 33 39 C30.46875 40.68359375 30.46875 40.68359375 28 42 C13.68600445 32.3433155 4.14528983 21.10435126 0 4 C0 2.68 0 1.36 0 0 Z " fill="#F8C50A" transform="translate(77,133)"/>
<path d="M0 0 C10.77136374 -0.52330512 19.72198174 -0.18534551 29 6 C27.93474762 16.83006584 21.84480825 26.57577587 14 34 C12.68278269 35.02113483 11.35322795 36.02709102 10 37 C5.3101024 35.15754023 3.0827685 32.16553701 0.859375 27.71875 C-2.47725044 19.72964683 -3.90503262 10.42425319 -0.9765625 2.0859375 C-0.65429688 1.39757812 -0.33203125 0.70921875 0 0 Z M15 8 C14.01 8.495 14.01 8.495 13 9 C13.33 9.99 13.66 10.98 14 12 C14.99 12 15.98 12 17 12 C17.33 11.01 17.66 10.02 18 9 C17.01 8.67 16.02 8.34 15 8 Z " fill="#FAC605" transform="translate(161,133)"/>
<path d="M0 0 C15.13100341 0.65644266 28.12002866 7.05287449 38.58984375 17.9375 C41.44087106 21.56019921 43.60403258 25.27395655 45.6875 29.375 C46.03893066 30.06513184 46.39036133 30.75526367 46.75244141 31.46630859 C48.48454933 35.11543746 49.25530819 37.15868313 48 41 C47.53851563 40.50371094 47.07703125 40.00742188 46.6015625 39.49609375 C35.58406146 28.02134464 23.42308561 21.30923997 7.4609375 19.5546875 C4.64671636 18.92037099 3.69906671 18.29936788 2 16 C0.22085101 10.4752742 -0.20643726 5.78024341 0 0 Z " fill="#F5C309" transform="translate(104,80)"/>
<path d="M0 0 C-0.06960937 1.41539062 -0.06960937 1.41539062 -0.140625 2.859375 C-0.47813206 14.8649833 1.45247912 24.26577541 8.73046875 34.16015625 C10 36 10 36 11 39 C7.37 40.32 3.74 41.64 0 43 C-6.44921613 38.06824649 -11.54724461 32.25224968 -13 24 C-13.81708329 8.39940965 -13.81708329 8.39940965 -11 3 C-7.30643932 0.27171111 -4.48283646 -1.49427882 0 0 Z " fill="#FAC604" transform="translate(149,138)"/>
<path d="M0 0 C0.33 0 0.66 0 1 0 C1.22042969 1.50626953 1.22042969 1.50626953 1.4453125 3.04296875 C2.96789575 12.58871009 5.44664239 20.39430148 10 29 C1.22657581 29.45996593 1.22657581 29.45996593 -3 27.875 C-6.44861425 24.64192414 -6.85799322 21.25439318 -7.375 16.6875 C-6.75428904 10.5838422 -4.17743186 4.57528251 0 0 Z " fill="#F5C30A" transform="translate(124,153)"/>
<path d="M0 0 C0.99 5.28 1.98 10.56 3 16 C-8.71428571 18.14285714 -8.71428571 18.14285714 -14 19 C-12.71983821 13.59487242 -6.59869715 0 0 0 Z " fill="#EFC326" transform="translate(95,83)"/>
<path d="M0 0 C0.66 0.66 1.32 1.32 2 2 C4.46049235 1.80014339 4.46049235 1.80014339 7.125 1.125 C8.03507813 0.92132813 8.94515625 0.71765625 9.8828125 0.5078125 C10.93082031 0.25644531 10.93082031 0.25644531 12 0 C13.20250158 2.24307028 14.3869162 4.4928791 15.5625 6.75 C16.07586914 7.70132813 16.07586914 7.70132813 16.59960938 8.671875 C19.06382218 13.45095438 19.06382218 13.45095438 18.71484375 16.453125 C18.47894531 16.96359375 18.24304688 17.4740625 18 18 C17.53851563 17.50371094 17.07703125 17.00742188 16.6015625 16.49609375 C11.52011986 11.2037612 6.12173726 7.02316659 0 3 C-0.99 2.34 -1.98 1.68 -3 1 C-2.01 0.67 -1.02 0.34 0 0 Z " fill="#EFC012" transform="translate(134,103)"/>
<path d="M0 0 C-0.350625 0.7425 -0.70125 1.485 -1.0625 2.25 C-2.07743336 5.22713784 -1.80029082 6.09894579 -1 9 C-1.66 9.66 -2.32 10.32 -3 11 C-2.34 11.33 -1.68 11.66 -1 12 C-1 12.99 -1 13.98 -1 15 C-5.455 14.01 -5.455 14.01 -10 13 C-10.97586198 9.09655209 -11.68624062 5.73381852 -10 2 C-6.40349908 0.40155515 -3.96602757 0 0 0 Z " fill="#050505" transform="translate(242,122)"/>
<path d="M0 0 C1.65 0.66 3.3 1.32 5 2 C4.49890733 7.32918824 3.20620552 11.1347457 0.625 15.8125 C0.01914063 16.93269531 -0.58671875 18.05289063 -1.2109375 19.20703125 C-3 22 -3 22 -6 24 C-6 22.68 -6 21.36 -6 20 C-5.34 20 -4.68 20 -4 20 C-4 19.34 -4 18.68 -4 18 C-3.34 18 -2.68 18 -2 18 C-2.33 16.68 -2.66 15.36 -3 14 C-3.99 14.66 -4.98 15.32 -6 16 C-9.5625 15.875 -9.5625 15.875 -13 15 C-14.4375 12.9375 -14.4375 12.9375 -15 11 C-13.515 11.99 -13.515 11.99 -12 13 C-9.45792029 13.33343551 -9.45792029 13.33343551 -7 13 C-4.65026182 11.10244856 -4.65026182 11.10244856 -4.875 7.875 C-4.91625 6.92625 -4.9575 5.9775 -5 5 C-4.01 5 -3.02 5 -2 5 C-2 7.31 -2 9.62 -2 12 C-1.01 12 -0.02 12 1 12 C1.92470553 7.28400182 2.22923777 4.32734391 0 0 Z " fill="#EFC524" transform="translate(185,137)"/>
<path d="M0 0 C0 0.33 0 0.66 0 1 C-0.97582031 1.02578125 -1.95164063 1.0515625 -2.95703125 1.078125 C-4.22933594 1.13484375 -5.50164062 1.1915625 -6.8125 1.25 C-8.70935547 1.31960937 -8.70935547 1.31960937 -10.64453125 1.390625 C-14.01841356 1.70168928 -14.01841356 1.70168928 -16.01171875 3.796875 C-17.21031922 5.94682346 -17.21031922 5.94682346 -16.6875 8.25 C-16.460625 8.8275 -16.23375 9.405 -16 10 C-17.93922422 9.54901762 -19.87633594 9.08894441 -21.8125 8.625 C-22.89144531 8.36976562 -23.97039062 8.11453125 -25.08203125 7.8515625 C-28 7 -28 7 -31 5 C-21.27033672 -0.63296295 -10.90752878 -0.26178069 0 0 Z " fill="#F6C41B" transform="translate(142,66)"/>
<path d="M0 0 C2.5625 2.1875 2.5625 2.1875 5 5 C4.8125 7.8125 4.8125 7.8125 4 10 C3.360625 10.103125 2.72125 10.20625 2.0625 10.3125 C1.381875 10.539375 0.70125 10.76625 0 11 C-0.33 11.99 -0.66 12.98 -1 14 C-2.5 12.625 -2.5 12.625 -4 11 C-4 10.34 -4 9.68 -4 9 C-4.99 8.67 -5.98 8.34 -7 8 C-5.50902342 4.2047869 -3.24299151 2.38957269 0 0 Z M0 5 C-0.33 5.66 -0.66 6.32 -1 7 C-0.01 6.67 0.98 6.34 2 6 C1.34 5.67 0.68 5.34 0 5 Z " fill="#050505" transform="translate(213,56)"/>
<path d="M0 0 C1.21816406 0.03480469 1.21816406 0.03480469 2.4609375 0.0703125 C3.68683594 0.09738281 3.68683594 0.09738281 4.9375 0.125 C5.87722656 0.15980469 5.87722656 0.15980469 6.8359375 0.1953125 C6.6503125 0.7521875 6.4646875 1.3090625 6.2734375 1.8828125 C5.60103271 4.64570039 5.60103271 4.64570039 6.8359375 9.1953125 C3.2059375 9.1953125 -0.4240625 9.1953125 -4.1640625 9.1953125 C-4.2890625 5.8203125 -4.2890625 5.8203125 -4.1640625 2.1953125 C-2.1640625 0.1953125 -2.1640625 0.1953125 0 0 Z M-0.1640625 3.1953125 C-0.4940625 4.1853125 -0.8240625 5.1753125 -1.1640625 6.1953125 C-0.5040625 6.1953125 0.1559375 6.1953125 0.8359375 6.1953125 C0.5059375 5.2053125 0.1759375 4.2153125 -0.1640625 3.1953125 Z " fill="#030303" transform="translate(32.1640625,127.8046875)"/>
<path d="M0 0 C0.99 0.33 1.98 0.66 3 1 C3 1.66 3 2.32 3 3 C5.97 3.495 5.97 3.495 9 4 C8.45276317 7.37462715 7.9451 9.08235 6 12 C2.04179141 11.43454163 -0.6659053 10.19097652 -4 8 C-2.87548273 5.0280615 -1.77706209 2.66559313 0 0 Z M1 4 C2 6 2 6 2 6 Z M4 6 C5 8 5 8 5 8 Z " fill="#040404" transform="translate(45,70)"/>
<path d="M0 0 C4.875 1.875 4.875 1.875 6 3 C6.3125 5.8125 6.3125 5.8125 6 9 C4 11.375 4 11.375 2 13 C1.01 12.67 0.02 12.34 -1 12 C-1.33 11.34 -1.66 10.68 -2 10 C-2.99 9.67 -3.98 9.34 -5 9 C-3.7508258 5.54074837 -2.32472205 2.85306797 0 0 Z M1 4 C1.33 4.99 1.66 5.98 2 7 C2 6.01 2 5.02 2 4 C1.67 4 1.34 4 1 4 Z " fill="#050505" transform="translate(194,40)"/>
<path d="M0 0 C1.32561852 6.38707103 1.32561852 6.38707103 -0.0625 9 C-2.97169054 10.5015177 -4.9178262 9.85251616 -8 9 C-8.66 8.34 -9.32 7.68 -10 7 C-9.75 3.4375 -9.75 3.4375 -9 0 C-5.93109813 -1.53445094 -3.29905734 -0.54984289 0 0 Z M-5 2 C-5.99 3.485 -5.99 3.485 -7 5 C-5.515 5.99 -5.515 5.99 -4 7 C-3.34 5.68 -2.68 4.36 -2 3 C-2.99 2.67 -3.98 2.34 -5 2 Z " fill="#040404" transform="translate(186,34)"/>
<path d="M0 0 C3 0.25 3 0.25 5 2.25 C4.77181974 8.52495722 4.77181974 8.52495722 1.9375 11.1875 C1.298125 11.538125 0.65875 11.88875 0 12.25 C-2.31 10.27 -4.62 8.29 -7 6.25 C-4.04347826 0.33695652 -4.04347826 0.33695652 0 0 Z M-2 3.25 C-2 4.24 -2 5.23 -2 6.25 C-1.01 6.58 -0.02 6.91 1 7.25 C1 5.93 1 4.61 1 3.25 C0.01 3.25 -0.98 3.25 -2 3.25 Z " fill="#040404" transform="translate(57,58.75)"/>
<path d="M0 0 C2 3 2 3 1.625 6.1875 C1.41875 7.115625 1.2125 8.04375 1 9 C-1.75 10.1875 -1.75 10.1875 -5 11 C-7.375 10 -7.375 10 -9 8 C-9.4375 4.9375 -9.4375 4.9375 -9 2 C-5.54970958 -0.30019361 -4.05445642 -0.43132515 0 0 Z M-5 3 C-5 4.32 -5 5.64 -5 7 C-4.01 7 -3.02 7 -2 7 C-2 5.68 -2 4.36 -2 3 C-2.99 3 -3.98 3 -5 3 Z " fill="#020202" transform="translate(90,34)"/>
<path d="M0 0 C0.144375 1.11375 0.28875 2.2275 0.4375 3.375 C0.78372035 6.82142047 0.78372035 6.82142047 2 9 C1.195625 8.979375 0.39125 8.95875 -0.4375 8.9375 C-2.93354885 8.70366379 -2.93354885 8.70366379 -4 10 C-4.99 10.33 -5.98 10.66 -7 11 C-8.42258812 7.17679443 -9.24042276 4.08718695 -9 0 C-5.67465243 -1.10844919 -3.37817425 -0.84454356 0 0 Z M-5 2 C-5 2.66 -5 3.32 -5 4 C-4.34 4 -3.68 4 -3 4 C-3 3.34 -3 2.68 -3 2 C-3.66 2 -4.32 2 -5 2 Z " fill="#040404" transform="translate(120,24)"/>
<path d="M0 0 C8.61738853 -0.30654742 15.93475404 -0.39589303 24 3 C20.71092588 4.09635804 20.17110802 3.83025373 17 3 C14.27803041 2.93421222 11.57334826 3.00116398 8.8515625 3.0625 C6 3 6 3 0 2 C0 8.93 0 15.86 0 23 C-2.11790763 18.76418473 -2.26982837 16.70729452 -2.25 12.0625 C-2.25515625 10.85722656 -2.2603125 9.65195313 -2.265625 8.41015625 C-2.0123664 5.15876275 -1.39643877 2.92033029 0 0 Z " fill="#E6BF28" transform="translate(161,133)"/>
<path d="M0 0 C1.6875 3.0625 1.6875 3.0625 3 6 C2.030625 6.45375 1.06125 6.9075 0.0625 7.375 C-3.07079582 8.65786221 -3.07079582 8.65786221 -4 11 C-4.99 11 -5.98 11 -7 11 C-8.8125 8.75 -8.8125 8.75 -10 6 C-9.27974481 2.93891543 -8.0867852 2.06453258 -5.5625 0.1875 C-3 -1 -3 -1 0 0 Z M-2 4 C-1 6 -1 6 -1 6 Z M-6 5 C-5 7 -5 7 -5 7 Z " fill="#060606" transform="translate(225,70)"/>
<path d="M0 0 C0.59355614 2.64860427 0.74209269 5.29197322 1 8 C-0.0725 7.979375 -1.145 7.95875 -2.25 7.9375 C-5.14790424 7.9857984 -7.28612141 8.13155885 -10 9 C-10.33 6.36 -10.66 3.72 -11 1 C-9.5437328 0.63743142 -8.08488815 0.28520207 -6.625 -0.0625 C-5.40683594 -0.35833984 -5.40683594 -0.35833984 -4.1640625 -0.66015625 C-2 -1 -2 -1 0 0 Z M-4 3 C-3 5 -3 5 -3 5 Z " fill="#050505" transform="translate(240,108)"/>
<path d="M0 0 C5.75 -0.125 5.75 -0.125 8 1 C7.814375 1.9075 7.62875 2.815 7.4375 3.75 C7.04265379 6.68314324 7.05308428 8.2644657 8 11 C1.25 11.125 1.25 11.125 -1 10 C-0.67 6.7 -0.34 3.4 0 0 Z M3 3 C7 4 7 4 7 4 Z " fill="#040404" transform="translate(142,22)"/>
<path d="M0 0 C0.66 0.66 1.32 1.32 2 2 C1.34 2 0.68 2 0 2 C0.33 2.66 0.66 3.32 1 4 C1.99 4.33 2.98 4.66 4 5 C4.33 4.01 4.66 3.02 5 2 C5.66 2.33 6.32 2.66 7 3 C7.36075949 7.44936709 7.36075949 7.44936709 5.8125 9.8125 C3.35092224 11.42525784 1.88934264 11.4334014 -1 11 C-2.875 9.875 -2.875 9.875 -4 8 C-3.875 4.9375 -3.875 4.9375 -3 2 C-2.01 1.34 -1.02 0.68 0 0 Z " fill="#120A02" transform="translate(174,140)"/>
<path d="M0 0 C2.24497221 2.24497221 2.37003419 2.96027349 2.75 6 C2.89695312 7.051875 2.89695312 7.051875 3.046875 8.125 C3 10 3 10 1 12 C-2.125 12.125 -2.125 12.125 -5 12 C-8 6.375 -8 6.375 -8 3 C-7.01 2.67 -6.02 2.34 -5 2 C-4.34 4.31 -3.68 6.62 -3 9 C-2.34 8.34 -1.68 7.68 -1 7 C-1.32198966 3.90073181 -1.32198966 3.90073181 -2 1 C-1.34 0.67 -0.68 0.34 0 0 Z " fill="#040404" transform="translate(103,26)"/>
<path d="M0 0 C6.75 0.75 6.75 0.75 9 3 C9.25 6 9.25 6 9 9 C8.34 9.66 7.68 10.32 7 11 C4.8359375 10.9765625 4.8359375 10.9765625 2.375 10.625 C1.14910156 10.45871094 1.14910156 10.45871094 -0.1015625 10.2890625 C-1.04128906 10.14597656 -1.04128906 10.14597656 -2 10 C-1.67 9.01 -1.34 8.02 -1 7 C1.31 7 3.62 7 6 7 C5.67 6.34 5.34 5.68 5 5 C1.97065509 4.34227572 1.97065509 4.34227572 -1 4 C-0.67 2.68 -0.34 1.36 0 0 Z " fill="#050505" transform="translate(30,111)"/>
<path d="M0 0 C4.455 0.99 4.455 0.99 9 2 C9.25 4.8125 9.25 4.8125 9 8 C7 9.875 7 9.875 5 11 C4.34 10.34 3.68 9.68 3 9 C1.9790625 8.7834375 1.9790625 8.7834375 0.9375 8.5625 C0.298125 8.376875 -0.34125 8.19125 -1 8 C-2.2077558 4.37673261 -1.54311128 3.35853631 0 0 Z M5 5 C6 7 6 7 6 7 Z " fill="#030303" transform="translate(33,97)"/>
<path d="M0 0 C6.46153846 0.46153846 6.46153846 0.46153846 9 3 C8.75 6.0625 8.75 6.0625 8 9 C4.78158126 10.60920937 2.28446801 9.0749168 -1 8 C-2 7 -2 7 -2.1875 4.5625 C-2 2 -2 2 0 0 Z M1 3 C2 5 2 5 2 5 Z M4 6 C5 8 5 8 5 8 Z " fill="#030303" transform="translate(231,142)"/>
<path d="M0 0 C5.625 -0.25 5.625 -0.25 9 2 C10.71444889 2.43738696 12.44667784 2.80848688 14.1875 3.125 C15.08855469 3.29257813 15.98960938 3.46015625 16.91796875 3.6328125 C17.60503906 3.75398437 18.29210937 3.87515625 19 4 C19 4.66 19 5.32 19 6 C21.45873768 5.85941524 23.91685175 5.71277001 26.375 5.5625 C27.07367188 5.52318359 27.77234375 5.48386719 28.4921875 5.44335938 C32.37360492 5.25719866 32.37360492 5.25719866 36 4 C38.6723621 3.86584528 41.32250488 3.95681459 44 4 C39.39338351 8.60661649 30.94620173 7.2984019 24.81445312 7.32348633 C15.82490101 7.20842398 7.15055247 5.88571418 0 0 Z " fill="#E3BA21" transform="translate(88,129)"/>
<path d="M0 0 C1.32 0 2.64 0 4 0 C4 0.99 4 1.98 4 3 C5.32 3.33 6.64 3.66 8 4 C7.25 8.75 7.25 8.75 5 11 C3.68 11 2.36 11 1 11 C0.67 10.01 0.34 9.02 0 8 C-0.66 7.67 -1.32 7.34 -2 7 C-2.125 4.625 -2.125 4.625 -2 2 C-1.34 1.34 -0.68 0.68 0 0 Z " fill="#050505" transform="translate(71,42)"/>
<path d="M0 0 C-0.33 0.66 -0.66 1.32 -1 2 C-2.65 2 -4.3 2 -6 2 C-5.67 2.99 -5.34 3.98 -5 5 C-3.35 5.33 -1.7 5.66 0 6 C0 6.66 0 7.32 0 8 C-6.38707103 9.32561852 -6.38707103 9.32561852 -9 7.9375 C-10 6 -10 6 -9.9375 2.9375 C-9 0 -9 0 -7.25 -1.5 C-4.26470406 -2.1633991 -2.68617496 -1.34308748 0 0 Z " fill="#030303" transform="translate(136,23)"/>
<path d="M0 0 C0.99 0.33 1.98 0.66 3 1 C1.125 4.875 1.125 4.875 0 6 C1.65 6 3.3 6 5 6 C5.33 7.32 5.66 8.64 6 10 C2.37 10 -1.26 10 -5 10 C-5.33 8.68 -5.66 7.36 -6 6 C-4.78515625 4.296875 -4.78515625 4.296875 -3.0625 2.75 C-2.21365234 1.96882813 -2.21365234 1.96882813 -1.34765625 1.171875 C-0.90292969 0.78515625 -0.45820313 0.3984375 0 0 Z " fill="#050505" transform="translate(229,82)"/>
<path d="M0 0 C2.31 0.66 4.62 1.32 7 2 C6.67 3.98 6.34 5.96 6 8 C5.195625 8.12375 4.39125 8.2475 3.5625 8.375 C2.716875 8.58125 1.87125 8.7875 1 9 C0.67 9.66 0.34 10.32 0 11 C-0.99 11 -1.98 11 -3 11 C-2.53199289 6.94393835 -2.12046792 3.53411321 0 0 Z " fill="#040404" transform="translate(166,26)"/>
<path d="M0 0 C0.928125 0.20625 1.85625 0.4125 2.8125 0.625 C3.1425 2.935 3.4725 5.245 3.8125 7.625 C2.8225 7.955 1.8325 8.285 0.8125 8.625 C0.8125 7.965 0.8125 7.305 0.8125 6.625 C-0.3321875 6.9034375 -0.3321875 6.9034375 -1.5 7.1875 C-4.1875 7.625 -4.1875 7.625 -7.1875 6.625 C-6.875 4.25 -6.875 4.25 -6.1875 1.625 C-3.1875 -0.375 -3.1875 -0.375 0 0 Z " fill="#0B0704" transform="translate(189.1875,125.375)"/>
<path d="M0 0 C2.03833424 1.2739589 4.03852126 2.61061923 6 4 C6 4.66 6 5.32 6 6 C6.66 6 7.32 6 8 6 C8 6.66 8 7.32 8 8 C8.66 8.33 9.32 8.66 10 9 C9.01 9.66 8.02 10.32 7 11 C7.33 11.66 7.66 12.32 8 13 C6.35 13 4.7 13 3 13 C2.49242138 11.58603098 1.99425075 10.16868271 1.5 8.75 C1.08234375 7.56664062 1.08234375 7.56664062 0.65625 6.359375 C0 4 0 4 0 0 Z " fill="#FBC605" transform="translate(77,133)"/>
<path d="M0 0 C0.8971875 0.309375 0.8971875 0.309375 1.8125 0.625 C1.8125 1.945 1.8125 3.265 1.8125 4.625 C1.1525 4.625 0.4925 4.625 -0.1875 4.625 C-0.5175 6.275 -0.8475 7.925 -1.1875 9.625 C-3.4975 9.625 -5.8075 9.625 -8.1875 9.625 C-7.76257874 8.32914084 -7.32204118 7.0383956 -6.875 5.75 C-6.63136719 5.03070313 -6.38773437 4.31140625 -6.13671875 3.5703125 C-4.73027108 0.68796295 -3.24201759 -0.55577444 0 0 Z " fill="#FAC603" transform="translate(93.1875,89.375)"/>
<path d="M0 0 C0.42925781 0.57492188 0.85851562 1.14984375 1.30078125 1.7421875 C2.39229145 3.192516 3.4931235 4.63590136 4.60546875 6.0703125 C5.12753906 6.74835938 5.64960938 7.42640625 6.1875 8.125 C6.71730469 8.80820313 7.24710938 9.49140625 7.79296875 10.1953125 C9 12 9 12 9 14 C5.37 15.32 1.74 16.64 -2 18 C-3.32 16.68 -4.64 15.36 -6 14 C-4.39125 14.2784375 -4.39125 14.2784375 -2.75 14.5625 C0.40391546 14.9304568 2.09818492 15.04465343 5 14 C5 13.34 5 12.68 5 12 C4.34 12 3.68 12 3 12 C2.87625 11.236875 2.7525 10.47375 2.625 9.6875 C2.11897208 6.79732864 2.11897208 6.79732864 0 4 C0 2.68 0 1.36 0 0 Z " fill="#E1BA23" transform="translate(151,163)"/>
<path d="M0 0 C0.99 0.33 1.98 0.66 3 1 C2.67 1.99 2.34 2.98 2 4 C4.31 4.66 6.62 5.32 9 6 C8.67 6.99 8.34 7.98 8 9 C2.25 8.125 2.25 8.125 0 7 C0 7.66 0 8.32 0 9 C-0.99 9 -1.98 9 -3 9 C-2.44271087 5.65626525 -1.64826111 2.96687001 0 0 Z " fill="#040404" transform="translate(38,83)"/>
<path d="M0 0 C0.99 0 1.98 0 3 0 C3 0.66 3 1.32 3 2 C5.64 1.67 8.28 1.34 11 1 C11.33 1.99 11.66 2.98 12 4 C8.535 5.485 8.535 5.485 5 7 C5 7.66 5 8.32 5 9 C4.01 9 3.02 9 2 9 C1.34 6.03 0.68 3.06 0 0 Z " fill="#050505" transform="translate(29,143)"/>
<path d="M0 0 C0 0.33 0 0.66 0 1 C-1.02154175 1.029729 -1.02154175 1.029729 -2.0637207 1.06005859 C-5.14703917 1.15526983 -8.22967649 1.26496466 -11.3125 1.375 C-12.9202832 1.42140625 -12.9202832 1.42140625 -14.56054688 1.46875 C-16.10258789 1.52675781 -16.10258789 1.52675781 -17.67578125 1.5859375 C-19.0975769 1.63306885 -19.0975769 1.63306885 -20.5480957 1.68115234 C-23.2530269 1.8489051 -23.2530269 1.8489051 -26 4 C-28.6875 3.625 -28.6875 3.625 -31 3 C-24.17451141 -3.82548859 -8.62966213 -1.63688584 0 0 Z " fill="#DEB925" transform="translate(116,108)"/>
<path d="M0 0 C0.53625 0.226875 1.0725 0.45375 1.625 0.6875 C1.295 1.6775 0.965 2.6675 0.625 3.6875 C2.275 3.6875 3.925 3.6875 5.625 3.6875 C5.955 5.0075 6.285 6.3275 6.625 7.6875 C4.68577578 7.23651762 2.74866406 6.77644441 0.8125 6.3125 C-0.26644531 6.05726562 -1.34539062 5.80203125 -2.45703125 5.5390625 C-5.375 4.6875 -5.375 4.6875 -8.375 2.6875 C-2.95961538 -0.38942308 -2.95961538 -0.38942308 0 0 Z " fill="#E3B823" transform="translate(119.375,68.3125)"/>
<path d="M0 0 C-0.03480469 1.46759766 -0.03480469 1.46759766 -0.0703125 2.96484375 C-0.17092231 10.27342753 0.01044085 16.91219551 2 24 C1.34 24 0.68 24 0 24 C-1.72206188 21.00873681 -2.24179923 18.89314287 -2.1953125 15.453125 C-2.18886719 14.60878906 -2.18242187 13.76445312 -2.17578125 12.89453125 C-2.15902344 12.02183594 -2.14226562 11.14914063 -2.125 10.25 C-2.11597656 9.36183594 -2.10695312 8.47367188 -2.09765625 7.55859375 C-2.07414577 5.37211942 -2.04128499 3.18619906 -2 1 C-4.31 1.66 -6.62 2.32 -9 3 C-6.07868595 -0.19953443 -4.37453972 -1.45817991 0 0 Z " fill="#DFB928" transform="translate(149,138)"/>
<path d="M0 0 C7.59 0.33 15.18 0.66 23 1 C21.68 2.32 20.36 3.64 19 5 C19 4.34 19 3.68 19 3 C17.31970703 3.05220703 17.31970703 3.05220703 15.60546875 3.10546875 C14.13282749 3.13360839 12.66017002 3.16090837 11.1875 3.1875 C10.08051758 3.22520508 10.08051758 3.22520508 8.95117188 3.26367188 C6.79296875 3.29296875 6.79296875 3.29296875 3 3 C2.01 2.01 1.02 1.02 0 0 Z " fill="#D2AF27" transform="translate(99,144)"/>
<path d="M0 0 C1.78821774 2.68232661 3.20142604 5.30288961 4.625 8.1875 C5.07101563 9.08855469 5.51703125 9.98960937 5.9765625 10.91796875 C6.31429687 11.60503906 6.65203125 12.29210937 7 13 C-4.02446483 13.57798165 -4.02446483 13.57798165 -8 10 C-8 9.01 -8 8.02 -8 7 C-7.34 7 -6.68 7 -6 7 C-6 7.99 -6 8.98 -6 10 C-2.7 10.33 0.6 10.66 4 11 C3.34 9.35 2.68 7.7 2 6 C1.34 6 0.68 6 0 6 C0 4.02 0 2.04 0 0 Z " fill="#E0BB29" transform="translate(127,169)"/>
<path d="M0 0 C0.33 0 0.66 0 1 0 C1.06058594 0.78503906 1.12117187 1.57007813 1.18359375 2.37890625 C1.62820214 7.95361148 2.12124643 13.47640616 3 19 C3.66 19 4.32 19 5 19 C5.28875 19.804375 5.5775 20.60875 5.875 21.4375 C6.73262568 24.1326468 6.73262568 24.1326468 9 25 C8.67 26.32 8.34 27.64 8 29 C7.03275368 27.6312552 6.0766356 26.25464396 5.125 24.875 C4.59132812 24.10929687 4.05765625 23.34359375 3.5078125 22.5546875 C0.37760782 17.25118009 -0.24028099 12.73489257 -0.125 6.625 C-0.10695312 5.37976563 -0.08890625 4.13453125 -0.0703125 2.8515625 C-0.04710937 1.91054687 -0.02390625 0.96953125 0 0 Z " fill="#E4BB21" transform="translate(136,148)"/>
<path d="M0 0 C1.32 0.66 2.64 1.32 4 2 C4 2.99 4 3.98 4 5 C-0.22222222 8 -0.22222222 8 -3 8 C-3.33 8.99 -3.66 9.98 -4 11 C-4.75 9.375 -4.75 9.375 -5 7 C-3.50594347 4.4601039 -2.09462345 2.09462345 0 0 Z " fill="#EAC224" transform="translate(188,115)"/>
<path d="M0 0 C2.9719385 1.12451727 5.33440687 2.22293791 8 4 C8.33 2.68 8.66 1.36 9 0 C12.34821429 6.96428571 12.34821429 6.96428571 11 11 C7.33333333 7.33333333 3.66666667 3.66666667 0 0 Z " fill="#DAB828" transform="translate(141,110)"/>
<path d="M0 0 C0 0.99 0 1.98 0 3 C0.99 3.33 1.98 3.66 3 4 C1.74458443 6.51083114 0.49936512 6.87125446 -2 8 C-2 7.34 -2 6.68 -2 6 C-3.65 6.66 -5.3 7.32 -7 8 C-4.18918919 0 -4.18918919 0 0 0 Z " fill="#201401" transform="translate(187,110)"/>
<path d="M0 0 C0 0.99 0 1.98 0 3 C-1.98 3.33 -3.96 3.66 -6 4 C-5.34 5.32 -4.68 6.64 -4 8 C-4.66 8 -5.32 8 -6 8 C-5.67 9.32 -5.34 10.64 -5 12 C-5.99 11.34 -6.98 10.68 -8 10 C-8.5 6.5625 -8.5 6.5625 -8 3 C-5.15739513 0.61835808 -3.71594733 0 0 0 Z " fill="#EBC01F" transform="translate(85,111)"/>
<path d="M0 0 C3.77777778 1.55555556 3.77777778 1.55555556 5 4 C2.03 4.66 -0.94 5.32 -4 6 C-4.33 4.35 -4.66 2.7 -5 1 C-3 0 -3 0 0 0 Z " fill="#FBC606" transform="translate(140,100)"/>
<path d="M0 0 C0.33 1.32 0.66 2.64 1 4 C-2.61973402 5.31626692 -5.09567131 6 -9 6 C-8.67 4.68 -8.34 3.36 -8 2 C-5.36 1.34 -2.72 0.68 0 0 Z " fill="#050505" transform="translate(236,97)"/>
<path d="M0 0 C0.99 0.33 1.98 0.66 3 1 C2.34 2.65 1.68 4.3 1 6 C1.99 5.67 2.98 5.34 4 5 C4.33 6.32 4.66 7.64 5 9 C2.69 9 0.38 9 -2 9 C-2.125 5.625 -2.125 5.625 -2 2 C-1.34 1.34 -0.68 0.68 0 0 Z " fill="#090909" transform="translate(30,128)"/>
<path d="M0 0 C0.33 0 0.66 0 1 0 C1.66 5.28 2.32 10.56 3 16 C2.34 16.33 1.68 16.66 1 17 C0.67 13.37 0.34 9.74 0 6 C-0.99 6 -1.98 6 -3 6 C-1.125 1.125 -1.125 1.125 0 0 Z " fill="#DFB728" transform="translate(124,153)"/>
<path d="M0 0 C1.32 0 2.64 0 4 0 C4 0.66 4 1.32 4 2 C3.01 2 2.02 2 1 2 C1.20496094 2.81984375 1.40992187 3.6396875 1.62109375 4.484375 C2.74739583 8.98958333 3.87369792 13.49479167 5 18 C4.34 18 3.68 18 3 18 C0.86380263 11.79485526 -0.36517527 6.57315478 0 0 Z " fill="#DEB723" transform="translate(104,80)"/>
<path d="M0 0 C0.33 0 0.66 0 1 0 C1.66 3.3 2.32 6.6 3 10 C1.02 10 -0.96 10 -3 10 C-2.67 8.35 -2.34 6.7 -2 5 C-1.34 5 -0.68 5 0 5 C0 3.35 0 1.7 0 0 Z " fill="#E7BC21" transform="translate(95,89)"/>
<path d="M0 0 C4.14298667 0.59834725 7.18194377 2.00664285 10.8125 4.0625 C11.78832031 4.61035156 12.76414063 5.15820312 13.76953125 5.72265625 C14.50558594 6.14417969 15.24164063 6.56570312 16 7 C13.13822943 8.43088528 11.06624227 7.59991697 8 7 C8 6.01 8 5.02 8 4 C6.68 4 5.36 4 4 4 C4 3.34 4 2.68 4 2 C2.68 2 1.36 2 0 2 C0 1.34 0 0.68 0 0 Z " fill="#F1C92D" transform="translate(152,69)"/>
<path d="M0 0 C0 0.99 0 1.98 0 3 C-0.928125 2.773125 -1.85625 2.54625 -2.8125 2.3125 C-5.90909167 1.66588049 -5.90909167 1.66588049 -7.75 3.1875 C-9.04197926 5.06086993 -10.06953338 6.9243437 -11 9 C-10.6875 5.625 -10.6875 5.625 -10 2 C-6.3558226 -0.4294516 -4.28758728 -0.16179575 0 0 Z " fill="#E9BE1F" transform="translate(180,139)"/>
<path d="M0 0 C1.32 0 2.64 0 4 0 C6 2 6 2 7 5 C7.66 5.66 8.32 6.32 9 7 C5 7 5 7 3.515625 5.72265625 C0 1.11111111 0 1.11111111 0 0 Z " fill="#E8BF1F" transform="translate(163,162)"/>
<path d="M0 0 C2.5654594 2.5654594 2.54046087 4.47686668 3 8 C1.02 8.99 1.02 8.99 -1 10 C-1.125 3.375 -1.125 3.375 0 0 Z " fill="#E5C120" transform="translate(187,100)"/>
<path d="M0 0 C1.65 0.99 3.3 1.98 5 3 C4.01 3.33 3.02 3.66 2 4 C2.33 4.556875 2.66 5.11375 3 5.6875 C4.1309601 8.30284522 4.15662974 10.1806646 4 13 C1.27835324 10.27835324 0.89427524 7.70485455 0 4 C0 2.68 0 1.36 0 0 Z " fill="#E4BF3B" transform="translate(77,133)"/>
<path d="M0 0 C1.485 0.99 1.485 0.99 3 2 C6.75698557 2.37569856 7.75366476 2.1642235 11 0 C10.34 1.65 9.68 3.3 9 5 C5.625 4.75 5.625 4.75 2 4 C0.5625 1.9375 0.5625 1.9375 0 0 Z " fill="#DCB722" transform="translate(170,148)"/>
<path d="M0 0 C2.31 0.33 4.62 0.66 7 1 C7 1.66 7 2.32 7 3 C2.545 4.485 2.545 4.485 -2 6 C-2 4 -2 4 0 2 C0 1.34 0 0.68 0 0 Z " fill="#1A0A02" transform="translate(142,134)"/>
<path d="M0 0 C0 0.99 0 1.98 0 3 C-0.33 2.34 -0.66 1.68 -1 1 C-1.33 1.66 -1.66 2.32 -2 3 C-4.5625 3.625 -4.5625 3.625 -7 4 C-7.33 3.01 -7.66 2.02 -8 1 C-5.29120665 -0.35439668 -2.99066732 -0.06501451 0 0 Z " fill="#090909" transform="translate(90,34)"/>
<path d="M0 0 C1.32 0 2.64 0 4 0 C2.7508258 3.45925163 1.32472205 6.14693203 -1 9 C-0.67 6.03 -0.34 3.06 0 0 Z " fill="#EABF18" transform="translate(114,148)"/>
<path d="M0 0 C0.99 0 1.98 0 3 0 C3 0.66 3 1.32 3 2 C3.9590625 2.3403125 3.9590625 2.3403125 4.9375 2.6875 C7 4 7 4 7.75 6.625 C7.8325 7.40875 7.915 8.1925 8 9 C5.06799526 6.14723863 2.35684596 3.34920216 0 0 Z " fill="#251400" transform="translate(139,95)"/>
<path d="M0 0 C0.66 0.66 1.32 1.32 2 2 C1.34 2 0.68 2 0 2 C0 2.66 0 3.32 0 4 C-0.66 4 -1.32 4 -2 4 C-2 5.65 -2 7.3 -2 9 C-2.66 8.67 -3.32 8.34 -4 8 C-3.6875 5.125 -3.6875 5.125 -3 2 C-2.01 1.34 -1.02 0.68 0 0 Z " fill="#462100" transform="translate(174,140)"/>
<path d="M0 0 C0.33 0.99 0.66 1.98 1 3 C-5.75 2.25 -5.75 2.25 -8 0 C-4.71023192 -1.09658936 -3.28696233 -0.79953138 0 0 Z " fill="#211401" transform="translate(101,141)"/>
<path d="M0 0 C1.6498275 0.42218816 3.29483665 0.86324425 4.9375 1.3125 C6.31228516 1.67794922 6.31228516 1.67794922 7.71484375 2.05078125 C8.46894531 2.36402344 9.22304687 2.67726562 10 3 C10.33 3.99 10.66 4.98 11 6 C6.95743617 4.77782954 3.50711041 3.37245704 0 1 C0 0.67 0 0.34 0 0 Z " fill="#2C1F00" transform="translate(81,135)"/>
<path d="M0 0 C0.33 1.32 0.66 2.64 1 4 C-4.75 8 -4.75 8 -7 8 C-7 7.34 -7 6.68 -7 6 C-2.61538462 3 -2.61538462 3 0 3 C0 2.01 0 1.02 0 0 Z " fill="#2B1D02" transform="translate(192,117)"/>
<path d="M0 0 C0.33 0.66 0.66 1.32 1 2 C0.67 2.66 0.34 3.32 0 4 C0.66 4.33 1.32 4.66 2 5 C1.01 5.33 0.02 5.66 -1 6 C-1.33 6.99 -1.66 7.98 -2 9 C-2.6875 7.3125 -2.6875 7.3125 -3 5 C-1.5625 2.25 -1.5625 2.25 0 0 Z " fill="#C2A129" transform="translate(186,117)"/>
<path d="M0 0 C0.33 0.99 0.66 1.98 1 3 C1.66 3 2.32 3 3 3 C3 4.32 3 5.64 3 7 C1.68 6.34 0.36 5.68 -1 5 C-0.67 3.35 -0.34 1.7 0 0 Z " fill="#FBC403" transform="translate(146,107)"/>
<path d="M0 0 C0.66 0 1.32 0 2 0 C2.33 1.65 2.66 3.3 3 5 C3.99 5.33 4.98 5.66 6 6 C5.67 6.99 5.34 7.98 5 9 C0.57142857 3.85714286 0.57142857 3.85714286 0 0 Z " fill="#201000" transform="translate(129,172)"/>
<path d="M0 0 C0.66 0 1.32 0 2 0 C2 1.98 2 3.96 2 6 C0.68 5.34 -0.64 4.68 -2 4 C-1.34 2.68 -0.68 1.36 0 0 Z " fill="#DCB838" transform="translate(190,126)"/>
</svg>
